<mxfile host="Electron" agent="Mozilla/5.0 (Windows NT 10.0; Win64; x64) AppleWebKit/537.36 (KHTML, like Gecko) draw.io/28.1.2 Chrome/138.0.7204.243 Electron/37.4.0 Safari/537.36" version="28.1.2">
  <diagram name="Page-1" id="HqYQIQ9luNp7lF5JXF35">
    <mxGraphModel dx="1968" dy="1144" grid="1" gridSize="10" guides="1" tooltips="1" connect="1" arrows="1" fold="1" page="1" pageScale="1" pageWidth="827" pageHeight="1169" math="0" shadow="0">
      <root>
        <mxCell id="0" />
        <mxCell id="1" parent="0" />
        <mxCell id="nWaMgdDLjsEKXWT52Y_M-1" value="" style="shape=image;verticalLabelPosition=bottom;labelBackgroundColor=default;verticalAlign=top;aspect=fixed;imageAspect=0;image=data:image/png,iVBORw0KGgoAAAANSUhEUgAABLIAAABKCAYAAACvkn2eAAAME0lEQVR4Xu3dv2tcZ77A4f1Lds0GAgnYEceOJGOnmMaVQRBfXKhwcyMQXHDhRdUUboxdpVBxXagQ2JjLxahIMYELuaBiuZDdZWEL564LF2mWrRZcpAioeNfvSEea82t0jk4875n1M/BAfOanvjsKeT/7nuNf/fo3vw0AAAAAMHS/Kh8AAAAAgCESsgAAAABYCqch6zeXPgqffbYS1tfXw40bN8LNmzcBAAAAYKFil4p96sqVz8KlSx9VQ1Y8eO3atbC2thZWVlbC5cuXAQAAACCJ2Kdip8qyrBCzpiEr7sSKd5afBAAAAACpxF4Vd2YVQlbcrmUnFgAAAABDEntV7FaFkBXPPSw/EAAAAABSi92qELLihbTKDwIAAACA1GK3ErIAAAAAGDwhCwAAAIClIGQBAAAAsBSELAAAAACWQu+Qde3atXD9+vXpVePjcwEAAABgntiRYk+6evVqpTXNE5974ZD1+eefh7W1tbCyslK5DwAAAACaxJ4Uu1KXmHXhkBV3YsU3Kx8HAAAAgLa6xKwLh6y4/ctOLAAAAAD6iH0pdqby8ToXDlnxXMbyMQAAAADoqm1nunDIavs4AAAAAJinbWcSsgAAAABIqm1nErIAAAAASKptZxKyAAAAAEiqbWcSsgAAAAbg448/nv4V9F988UXlPs5nfv2YXz/m11/bziRkAQAADEBcCG9sbIQvv/yych/nM79+zK8f8+uvbWcSsgAAAAbAQrgf8+vH/Poxv/7adiYhCwAAYAAshPsxv37Mrx/z669tZxKyAAAABsBCuB/z68f8+jG//tp2JiELAABgACyE+zG/fsyvH/Prr21nErIAAAAGwEK4H/Prx/z6Mb/+2nYmIQsAAGAALIT7Mb9+zK8f8+uvbWcSsgAAgOV3dz/8GH7J22EYl9/jPRvCQjj76mX4e3kUHW9Hr3bD7ZrXft+GML9anb6bi//e5ZLOr9OM2twWP8ek8/sX0bYzCVkAAMDye7cQPvzzQdjbHlXv6yQLt8b/Hf7v9csPdCGchfuTt+Uq0OH2Y3i2mdW87vs3jPnVePfd3B/XHK9xd39/4d+7XNL5dZhRGynmmHR+ZePD41/Hozfh2b3V6v0zss298Prnk9/e/buV+xepbWdakpA1CluPn4adO+XjQzDkzwYAAB+I6UL4OEJ982gjZOX7W1kN9/Ym4fn26MNeCI+ehD8dnZapTre3k/sXnH1/g5lfrtMuo+MdRCm+d7mk8+sVssbvpnd8y0NMijkmnV9ZHrLi7ehN2G+Iy9nmbvjLTLcWsprc2QlPnz4NT3fuVO9rNORYdN5nO76/288LAAB0MrMQHm0/D5O9e2G1/Ji5RuHBi2/D1ycLvg99IXx791Xo3LJ+Ogzjm9XXWpQhzW+qQ5zJv28pvne5pPPrMKsqIasi2wz7b2Z+g39+HfZKMSvbeBK+n4lYR//4LoxHNa+1QG0708JD1p2dp2FnJ8asnXCn5v5658WixYmfvxilzvtsQhYAALx3pYVwtvEoHLx4EEblx9XJNsKjgxfhwcwizkJ4Mzxrv53o3e0ovNq9XX2dBRrM/HrsxErxvcslnZ+Q9csrx6y334cnG8cxK7v1MBzOnkH89jB5xIradqbFhqzRVng8DVjnxZ+yro9/f7qHLAAA4L2rWwiPHoQX334dNrOax58+Zjs8n+yFe6vF4xbC7xa79yeh9dWyftwPd2teY5EGM7+672KDcsBK8b3LJZ1fh5m1kWKOSefXZPVeeFaIWYdh/G/jQUasqG1nWmjIGm09Po1As/98Kj/tMPd46+T/QSnFomkQexoebzVdyPFkF9Tpa83u/spf607YOb3/cdg6+R9uGqpO33fmcz/+Xfhd4TXzoDX/9U5f8/RnPf/x+c9XeK/yYwAAgDNNC+F3C7m9yfOwXfPf0nFXwsHkUdioCV0WwtEoPPz9TzMr3qbb2zC5XzxtKYXBzC//Ls7bmXUS/soBK8X3Lpd0fk2/vzO7rcq3eddzSjHHpPObZ7QdXs7GrNnbgCJW1LYzLTBk1cWomThT/nPTc1tGrNkdUnUhqTFeTWPa7Oc4fnz+fk07shpfr/Kc8x5/HLhOf765cwEAAKYaF8KXw+q/Pwt/+OtBeHjrLLas3tsN3/7xf8N/NlwE2UL4xO3d8KphDZzffjoch5vl5yUwmPnN+S6WlQNWiu9dLun8OsysjRRzTDq/84wehMnfSr/Ibw8L/04cgradaXEh6/S0wvxYMRBVAk7BSZzaOo5YXU/jO95R1bC7K5rGq/yzlT5XKSQ1hazm1ys/55zHV8JVzeMBAICihoXwaHsvHHy9GbJ4vZgffgj791bD6MEk/P9343frg1HYfj4JT2tiloVwLgub8y6WdfQq7N4uPyeNwczPjqzuGn5/j3XflZVijknnd56GkDWk3VhR2860sJA1jUmV0+WKO5fymFU9lS7fxVQ+3qDu1LzWIasYvooRrByl2r1ep5BVDnqVsAUAAFTULIRH44MwebQRsvzYyfVifn69N3PdrNVwb/9/poFr9rkWwjOy+2HScLGsppCQwmDmJ2R1V/P720eKOSad3zxOLez+BseO40xlV9G8SFM4xe8s/hwHsYbnnL5m8b267ciK8s9bfeyiQtZshKvMDQAAKCoshLNw6+E34ZuHt84i1lxZ2Pz6IOxtn50dYiFcNHr4+1C5WtbfX4avaq4vlspg5tchypQDVorvXS7p/M6dWbddWSnmmHR+TcoXe//5ddj7j+LfWHj0j+8GE7PadqbFhKxKKMqVTy+cUYhcxfgzDUO1r5c/bzb+nIShTiErf4/q+5Svf9Xm9TqFrPjPpYvNF53sTiv9PM1/BgCAD8DpQjgLG48m4WBcs8aYKz7vILx4cPw8C+Gy22G3cLGsn8LhuMOacAEGMz87sro7N2R1k2KOSedXJ55OPRuxjt6E/fw06lHxby4cSsxq25kWErKqu5jOHO+w2gl3pjGnaSdSOf7MjzXF0xgfh62t2ThUfq3LlfB0dqzmc8+etlj4WwvLz71gyLpc/vz1syj/PM1/BgCAD8B0IVzdWdVNFm6ND6YRzEK4xkyYOfrTk8GtNwYzvw5RphywUnzvcknn12FmbaSYY9L5lc2LWCfi39paiFl/m4QHiWNW2860kJC1lOad9vgenYa92eN1oQ0AADjzbiF8+MMk7JWudXUR8dpaf3j98sNeCNfKwv3pxbJ+DPt3y/elN5j52ZHVnZD1yxofnn3Xjt6EZw3/Xsw2noTvZ2JW3Wmai9S2MwlZDcoXeV+UuvetjVsAAMCZedHgQrfDD3sh3OTmOPzX/lctrz22WIOZX4cocxaw8m/v4r93uaTz8/v7y8pD1tGb8PKcHarZ5m74y0nMErKW2pxrd713J6cGFk4tFLEAAOBf3aAWwktoMPO7UMha/A6issHMb0mZX39tO5OQBQAAMAAWwv0MZn6dTi1MvxMrN5j5LSnz669tZxKyAAAABsBCuJ/BzO8CO7LKx1MYzPyWlPn117YzCVkAAAADYCHcz2DmN28nVuWWfidWbjDzW1Lm11/bziRkAQAADICFcD/m14/59WN+/bXtTEIWAADAAFgI92N+/ZhfP+bXX9vOJGQBAAAMgIVwP+bXj/n1Y379te1MQhYAAMAAfPLJJ+HTTz+tHKcd8+vH/Poxv/7adiYhCwAAAICk2nYmIQsAAACApNp2JiELAAAAgKTadiYhCwAAAICk2namC4esGzduVI4BAAAAQFdtO9OFQ9b169fDyspK5TgAAAAAtBX7UuxM5eN1Lhyyrl69GtbW1irHAQAAAKCt9fX1kGVZ5XidC4esKI9ZdmYBAAAA0EXsSTFixb5Uvq9Jr5AVxTeL27/iuYzxuQAAAAAwT+xIsSe13YmVi8/tFbIAAAAAYBGELAAAAACWgpAFAAAAwFIQsgAAAABYCkIWAAAAAEuhErLiVePLDwIAAACA1GK3KoSs9fX1sLKyUnkgAAAAAKQSe1XsVoWQdeXKZ2Ftba3yYAAAAABIJUasy5evFEPWpUsfhSzLpjHLziwAAAAAUsp3YsVeFbtVIWTlMSvuzIoPiucexgtpAQAAAMAixS6V78SajViFkAUAAAAAQyZkAQAAALAU/gkje5DsIficwQAAAABJRU5ErkJggg==;" vertex="1" parent="1">
          <mxGeometry x="200" y="350" width="1202" height="74" as="geometry" />
        </mxCell>
        <mxCell id="nWaMgdDLjsEKXWT52Y_M-2" value="" style="whiteSpace=wrap;html=1;aspect=fixed;fillColor=none;strokeWidth=2;strokeColor=light-dark(#ff0000, #ededed);" vertex="1" parent="1">
          <mxGeometry x="1010" y="366.75" width="40.5" height="40.5" as="geometry" />
        </mxCell>
        <mxCell id="nWaMgdDLjsEKXWT52Y_M-4" value="" style="whiteSpace=wrap;html=1;aspect=fixed;fillColor=none;strokeWidth=2;strokeColor=light-dark(#ff0000, #ededed);" vertex="1" parent="1">
          <mxGeometry x="1090" y="366.75" width="40.5" height="40.5" as="geometry" />
        </mxCell>
        <mxCell id="nWaMgdDLjsEKXWT52Y_M-5" value="" style="whiteSpace=wrap;html=1;aspect=fixed;fillColor=none;strokeWidth=2;strokeColor=light-dark(#ff0000, #ededed);" vertex="1" parent="1">
          <mxGeometry x="1170" y="366.75" width="40.5" height="40.5" as="geometry" />
        </mxCell>
        <mxCell id="nWaMgdDLjsEKXWT52Y_M-6" value="" style="whiteSpace=wrap;html=1;aspect=fixed;fillColor=none;strokeWidth=2;strokeColor=light-dark(#ff0000, #ededed);" vertex="1" parent="1">
          <mxGeometry x="1250" y="366.75" width="40.5" height="40.5" as="geometry" />
        </mxCell>
        <mxCell id="nWaMgdDLjsEKXWT52Y_M-7" value="" style="whiteSpace=wrap;html=1;aspect=fixed;fillColor=none;strokeWidth=2;strokeColor=light-dark(#ff0000, #ededed);" vertex="1" parent="1">
          <mxGeometry x="1330" y="366.75" width="40.5" height="40.5" as="geometry" />
        </mxCell>
        <mxCell id="nWaMgdDLjsEKXWT52Y_M-8" value="Sending Text" style="text;html=1;align=center;verticalAlign=middle;whiteSpace=wrap;rounded=0;fontColor=#FF0000;fontStyle=1;fontSize=16;" vertex="1" parent="1">
          <mxGeometry x="977.56" y="320" width="105.37" height="30" as="geometry" />
        </mxCell>
        <mxCell id="nWaMgdDLjsEKXWT52Y_M-9" value="Show Message" style="text;html=1;align=center;verticalAlign=middle;whiteSpace=wrap;rounded=0;fontColor=#FF0000;fontStyle=1;fontSize=16;" vertex="1" parent="1">
          <mxGeometry x="1048.78" y="424" width="122.94" height="30" as="geometry" />
        </mxCell>
        <mxCell id="nWaMgdDLjsEKXWT52Y_M-10" value="Using History" style="text;html=1;align=center;verticalAlign=middle;whiteSpace=wrap;rounded=0;fontColor=#FF0000;fontStyle=1;fontSize=16;" vertex="1" parent="1">
          <mxGeometry x="1135.12" y="320" width="110.25" height="30" as="geometry" />
        </mxCell>
        <mxCell id="nWaMgdDLjsEKXWT52Y_M-11" value="Using Screenshot" style="text;html=1;align=center;verticalAlign=middle;whiteSpace=wrap;rounded=0;fontColor=#FF0000;fontStyle=1;fontSize=16;" vertex="1" parent="1">
          <mxGeometry x="1199.39" y="424" width="141.71" height="30" as="geometry" />
        </mxCell>
        <mxCell id="nWaMgdDLjsEKXWT52Y_M-12" value="Leaving" style="text;html=1;align=center;verticalAlign=middle;whiteSpace=wrap;rounded=0;fontColor=#FF0000;fontStyle=1;fontSize=16;" vertex="1" parent="1">
          <mxGeometry x="1302.56" y="320" width="95.37" height="30" as="geometry" />
        </mxCell>
        <mxCell id="nWaMgdDLjsEKXWT52Y_M-13" value="Text Input" style="text;html=1;align=center;verticalAlign=middle;whiteSpace=wrap;rounded=0;fontColor=#FF0000;fontStyle=1;fontSize=16;" vertex="1" parent="1">
          <mxGeometry x="210" y="320" width="90.25" height="30" as="geometry" />
        </mxCell>
        <mxCell id="nWaMgdDLjsEKXWT52Y_M-15" value="" style="endArrow=classic;html=1;rounded=0;exitX=0.5;exitY=1;exitDx=0;exitDy=0;fontColor=#FF0000;strokeColor=#FF0000;strokeWidth=3;" edge="1" parent="1">
          <mxGeometry width="50" height="50" relative="1" as="geometry">
            <mxPoint x="1110.165" y="454" as="sourcePoint" />
            <mxPoint x="1109.91" y="490" as="targetPoint" />
          </mxGeometry>
        </mxCell>
        <mxCell id="nWaMgdDLjsEKXWT52Y_M-17" value="" style="shape=image;verticalLabelPosition=bottom;labelBackgroundColor=default;verticalAlign=top;aspect=fixed;imageAspect=0;image=data:image/png,iVBORw0KGgoAAAANSUhEUgAABLEAAAI7CAYAAAATRAnQAAAAAXNSR0IArs4c6QAAAARnQU1BAACxjwv8YQUAAAAJcEhZcwAADsMAAA7DAcdvqGQAACSTSURBVHhe7d1/bNznfdjxD3WiZcltyHjMkBiJiJMtBWxgBlqyxUA6gJaVQoAhAnGnCHLnpqyjDkpjBYwX2w1U27HVpHGcEVFQC5uWMEkHG6q6FKCQVVtkgRiQwQWSCaX/ICbFOjApXHTQbCmJZVASxf1xR/L45Q8d9YP80Hy9gEOk+x7v+73nSNt853mea1rfvmE8AAAAACCxpomI1dTUFK0tvxlr194apVIpmpqaio8FAAAAgJtqfHw8xsbG4sKFt+OXv/x1XBmvzr9qWt++YXxVU1O0tb07SqVSjI6OxtjYWPHrAQAAAGBRlEqlWLNmTVy6dCneeON8XBkfj1URES0tvxmlUikuXLggYAEAAACwpKozsS5Ec3NzvOtdvxERUY1Ya9feGqOjo8XHAwAAAMCSGR0djXXr1kZMRKxSqWQGFgAAAACpjI2NRalUipiIWDZxBwAAACCjiW61qngAAAAAALIRsQAAAABIT8QCAAAAID0RCwAAAID0mta3bxhf/4E74vz588Vjc1qzZk00NzfHqlWrbAoPAAAAwFWNj4/HlStX4uLFi3Hx4sXi4Tm1tLTEz3/x+sIj1q233hqrVq2K0dHRGBsbKx4GAAAAgFmVSqVYs2ZNXL58ueGQNRGxFrSccM2aNbFq1aq4cOGCgAUAAADAgoyNjcWFCxdi9erVccsttxQPz2tBEau5uTlGR0eLdwMAAABAw0ZHR29uxFq1apUZWAAAAABcl7GxsVi1akFZamERyybuAAAAANwIC+1MC4pYAAAAALAURCwAAAAA0hOxAAAAAEhPxAIAAFgio6OjsW7dumhtbS0eogHG7/oYv+tj/BafiAUAALCE3vve98Z73vOe4t00yPhdH+N3fYzf4hKxAAAAAEhPxAIAAAAgPRELAAAAgPRELAAAAADSE7EAAAAASE/EAgAAACC9pvXtG8bXf+COOH/+fPHYDC0tLQ09DgAA4Kbr6I2jh3uivXj/NRuMfZ17Y6B49000OjoaHR0dUSqV4vTp08XDObR0x5/84T/F831/F5eKx5ZY2vFb0Pfm4n/fTVjS8VvQGDVi8cdxScfvHaLRztTS0hI//8XrIhYAALBMdfTGgcffFacP/UV868dni0cXoDne1/1YPPXQqvhvO571S/A0zXHvV0/EN+8/F/07t0ffcPH40ko7fh290buxL/oa+Gbq6O2NjX19i/p9N2FJx28BY9SIpRjHJR2/ou4DMbS/K+Lya/H9hx+M50++XXzEpOa7H4kXv7M7PrgmYqR/Z2xfwh/sRjvTRMRKvJywLe7ZtSe2bSren0HmawMAgJWj8oOvxF//s38Xz+7cEM3Fgw1ZG5sfeSb+7f/7j/HN//Xr4kE6PhdfuL8lItrjoS8+GG3F40zX0RtHh4Zi6HBP9OwfiqGh+W4Horv49TSoOw7UxvFob0fx4Mq2+s74/W+/GL13z/5PxOa7PxPfeaEasJajxYlYm7bFnj17Ys+KqT7VyLVyXi8AACyVS/GPA38W3/yH341nHtkca4uH59UWn3j8qfjw4JPx9euayfVO1R6fefKhyeVeqz/6SDzZ3VJ4DEUn9nVGZ+fVbzv7K8UvhWv3t4ei/7XL1T+vvjN6vvNiPFIIWc0bHowXXtgbH679GF9+43gc+sulm4V1LRYlYm3aUI5KpRJR3hDLMets2iZIAQBAZmd//PV48oeb4rHHP9HYbKHmDbHzqYcjvv1EfPfVbDs95dD2wOPx8IdW191zW3R9bm98bPYJHiubGVgstUuvRt+nPj0VstZ8MHa/8EI8uKH6A9v8vgfiG997Ij420aHPD8bT/+YLMbDM+v3Nj1ht98RHypU4c+wncfJcOTasiBZ0Nl556WAcPHaqeAAAALhJLp05HF/+dsTDf/4HMcdKmqq2j8cXn7k/Tj33tfjRMvsFbtE03xuP9v523Fa8/707Yt/nLN+ajRlYi2kg9tbGcyn3c0rn0qvR9+DD8f2JkNXysXjie9+I7g92xzf+6unoqgtY+z65d9kFrFiMiNV2VzlaK2fiVJyNn1XORblYsSaWGk7cdt0z+/9z0nZP7NqzJ3bdM+vRqSV8k8+1rW7W18QeVpti2+TxXTHxVJu2zTxv2z27Ys+u34nf2bUn7itHRPm+WZZEzv58MWP21vznrz6k+vqmjUXxMQAAwPzO/ii+9uW/j65nvhgfn+W/pZvf90A89ej7478++a2YZ9/jFa457v78F+L+OVYOtj/0ZHzmxn2k3DvLxIys2W5He0P+a8TUflfFm/2vGvD2yXh+9yNxZDJkdcX+I/vfEQErbn7Eaou7yq1ROVOdkXT2Z5U4V/7IVJhpuyd23ffuOHnkYBw8WLu99ErMGMu2e2LXjs0RJ4/ES6/MOFqLRDui9adTz/NypRz3FZYAlu/7SJyrnevlSmts/kQ1XJ06U4loLcddk/+Sq173ucr/jv/x0sF4uRIRlZerz103u2qu55vL3I/fFNtqr+/gwYNx8MjJOBfn4uSRl2LWlwsAAMzt7ZPxn/9mPHpeeCoeeN/UlKy1mz8Tz+7/1/FPL/4gzlhBOLf2T8eXHpynUq3+UDz8aHfM0bhWtuG+2D7L7KvOzs7o3N4X5gw1YmqWVfFm1lWDzv44nt39ePzw9VrImnB+MJ7+1KPLNmDFTY9YbXdFubUStYYVcfZnUTnXGuWJWnT2jXgz6v4+m9urAevNlw/OEbBicvle/eq9N86di3j37dOiUuXlqShUDVetcXtExKmfxMn662q7K8qt56Lys7nOVzXn881hzse33R7vjrrz1capdb4nAwAAZtX28Ufisd/677Hn934Q7X1/Gb2b10bbJ74a333o/8bzD/9ZvLrtmdgz73rDlawtHnj84Zi2FdYsbuv6YjxxrzGcwUysG8RsrJvl8qXlXfBvasRqu6scrVGO+yaXx+2Iza0RreW7anHpVBw7+HK8uXnHnMvnyps3R2uci3NvTL9/hsJyvB2bW4uPmEd1qePEdbXdVY7Wc5W4SsO6cYoxrxbRrvqaAQCAadq6n4pH3//D+Mp3X41Ll16Nvp6vRenJH8ff/tHrsf/xgTgbZ+PHX38mXtn6lejdvLDPMlwJmu99NHp/e8ZOWLNoifu/8DlRhpvEbKzr0vbx+NNDX4v77yjU6Jau2P83B6J7nnlE2d3EiLUpPrq5NSov1y0VnFgqN23p3qk4NnHs5Tdj847pIavy8sE4cjJm3D9Nbbnhm3XnOnLyXPFR8zr7yk+j0ro5PrqptgTyp7Msa7zJWidi3o7N8WbdrC0AAOBqmuN9Dzwbn1/9n+LJw2dicq7B2yfj+U/+i/iXO74VUx9C+Hac7PtSHP/wY/HIbBtnrVTNd8fnv3B/48sE2x+KJ22ONZ3lhDeQ2VjXZO3m+PeHvhU77qwFrNH/E4c+93QMnq8db+mKp//6PyzbkHXzItamDVGOuqWEE4pLCuu9cS5mS09nX3mpuofUjvrN2udTDWgLcyrOVCLK9+2IzfVLICcUlibeUJs2RPncyThSF/umf7BhbdP6yc3nr/Z3AABYSZpjw85n4o8ufzP+9Af/OBWw5nUpXv3uV+KH7//jePwT/is6IqL901+K+bbCmml1fOjhR6O74eq1AlhOeAOZjbVgzXdH74vfjt+fCFiXX4v+P3wwvvU/fxB7P7lvMmStvn3rsg1ZNy1ibdpQjqiciWILmly6t/mjsan4yYTzzEA6dexInDxXjvtmCzVnX4kfnTwX5fsmnusjce7kwj+29NSZ2tcUrvvUT07GudbNsWNP8dMJb5BTx+JIpVx9/rrbzTgVAAC8szTH3X/wpbj/H74RX17wbsWX4szhr8T31/5xPLUcf5u7kdoejKc++6G4ylZYM93WFV984t6wO1aNmVgslea7o/evvhc99QHr05+KvokpqGcH4tFPTc3IWn371nj6v3w1llvDb1rfvmF8/QfuiPPnJ+aWza2lpaWhxy1bbffErh3lqCzypwK23bMrdmx+M14+eGwqnm3aFnvui+n3AQAAUzp648BT/zxOf+2Z+NbJt4tHF6St+6n484euxMCOZ2OgePAmGh0djY6OjiiVSnH69Oni4UXSHPd+9UR88/5rnVI1Et//vQfi+an1mosmx/hVvxd7N/ZF3+neOHq4J2ad0DbSHzu390X09sbGvr44Xfjfxfy+m7Ck4zcxZjfohXcswTgu6fgVdR+Iof1d1T9ffi2+//CD8fws/1xs3vBgvPC9J+JjtR/3kf6dSzqzrdHO1NLSEj//xes3bybWcrToG7rXO3cu6vdxb7v93XV/AwAAZlP+rftj9/f+bubSrQXeTuz/3fhXH3xP8elXhOaPPRF/cs0BKyKiPR780qdnDzcrzYJmYm2J/UNDcbinPO3elWTL/pk/i9d6W8njOM3l1+LII7tnDVgREZfOvBif/eyB+Purd6OUzMSa1Bb37NoR5cqReGkxp2FFTJ57+jZeFbOwAADgHS7VTI5lKM34LWBW0cSMoaWcgTUhzfgtU8bv+jXamczEmuFsvPLSwSUIWDF57mmf4ihgAQAALC8NbexuBhZcKxELAAAAboSGlhOeiH2dndHZuXdJZ2HBciRiAQAAwHVqdH8nM7Dg2tkTCwAAYInYU+f6GL/rY/yuj/G7fo12JntiAQAAALBsiFgAAAAApGc5IQAAwBK5fPlyNDU1RalUKh6iAcbv+hi/62P8rl+jnclyQgAAgCW2evVqvwBfB+N3fYzf9TF+i0/EAgAAACA9EQsAAACA9EQsAAAAANJbUMQaHx8v3gUAAAAAC7bQzrSgiHXlyhWblgEAAABwXUqlUly5cqV497wWFLEuXrwYa9asKd4NAAAAAA279dZbY3R0tHj3vBYcsS5fvhzr1q0zIwsAAACABSmVSnHbbbfFpUuX4tKlS8XD82pa375hfP0H7ojz588Xj83plltuiVtuuSVWrVoVTU1NxcMAAAAAMM34+HhcuXIlRkdHFxSwWlpa4ue/eP3aIhYAAAAALIaJiLWg5YQAAAAAsBRELAAAAADSE7EAAAAASE/EAgAAACA9EQsAAACA9EQsAAAAANITsQAAAABIT8QCAAAAID0RCwAAAID0RCwAAAAA0hOxAAAAAEhPxAIAAAAgPRELAAAAgPRELAAAAADSE7EAAAAASE/EAgAAACA9EQsAAACA9EQsAAAAANITsQAAAABIT8QCAAAAID0RCwAAAID0RCwAAAAA0hOxAAAAAEhPxAIAAAAgPRELAAAAgPRELAAAAADSE7EAAAAASE/EAgAAACA9EQsAAACA9EQsAAAAANITsQAAAABIT8QCAAAAID0RCwAAAID0RCwAAAAA0hOxAAAAAEhPxAIAAAAgPRELAAAAgPRELAAAAADSE7GWme4DQzF0tDc6igcWwVKe+0boPjAUR3uX69UDAADAyrYoEauj9+ic8aP7wFAMHegu3n3tOnrj6NDRmK9VLOr1zKajN47Ocf6VqKP3aAwNDU3e5gpNc0a0jt44OjQUM9+2jug9ujLez0bHEAAAAJarRYlYTNexbUvEiWMxXDzQgIG9ndG5vW/ya+cLcjda8dw3RnfsKR+Kzs7O6m3fYLT3PDdrhBw4PhjRXo6Nhfs7tm2J9ojo2lqMVRuj3B4xeHygcP+1m228r+f9vDEaH0MAAABYrkSsRdcR1eaxdMkjl4HYu7cuMg0cj8H6w/UGjsdgdEWxVW0st8fIyEhE19aYdqh7a3TFYNzAhjWLDO/nAsYQAAAAlqmUEWv60qippYFzLfWbNjtm+LWoFB9wnYpLteqvYbZrmm3Z29TjhqNv+/boq28eteVwk88/z8yqqeepLpU73NMe0d4Thxv5urrn755tRtE8rzNmea0Te0xN+7pZrqGRc089dn90DR6aPj6TTkdlpDjjqju2do3EiccOxWCU4866J+24sxwxUonTdY+OGa/zwPTwVXwvJo/PNd7X835Wn7P4Ld3Re7RunKuPmTHOxeuuM/8YAgAAwPKULmJ1HxiKw1tOxM7JpVGV6Dlc/YV94PjgzNk20R17etpj8NCNXuZW1X1gKA73VGLfxPV07oz+8v7JyDDzmrpja1dEtG+JbZPlonrf7MvauuPA4Z6o7Jt4/s7Yd6L4mNkMR9/2ztjZPxIx0l8drzmW+nUfGIr9XYNTr+GxiN097TMeM9/rnEt7z+F4Lh6rfc2+GGzvicOF0HW1c1dVY83+2Bed9bOKphmOYydGIsp3TkWh7q3RNXIijg2fjspIe2yZHPSO2LalPUYKy/xmXG90xf666+3YVo4TO+vei8GJ442O97W+n/Obft2165oRxxoZQwAAAFieFi9iTcxeKdz2d9U9pqM3dneNRP9jdXFg4GD0j9SWkNX+vLt+s5/urdE10h8HF/o7e8PXEzG4b29MPf1w9D3WHyNdu6szxIpL3GrX0z9YF1Q67ozyXMvaOu6McoxEpW660EDfbHHkWtUCWv1rGO6Lx/pHph7SyOucy+C+2D455WcgDvbXR6YGzl3T0ftc9FSuHl+Gj52IkbpA2L21K6LyWgzXAlf7lm3Vc3dsiy3tIzOX+c17vRHDfXunzWCaGSmv4ma9n9OuO2LgYP+0cYgFjCEAAAAsR4sXsSZmrxRu++o379lYjvZoj57D9WHpcPS0R5Tv7JiciTMZKmoRozjbJqISr12tGjR8PbPEp+HXohLtUd4YETEQ1c5RW3R2ZzlGThyLvuODk9fZsW1LtA8erwtEdYb74tBg7TXPmFlzAzSyL1RDr3N2I/W1JiKGX6tMbb7eyLkXavhYnJiccTV9hls1cNXOvbEc7bN8H8x7vTXTlu1Nq5oNuEnvZ/G6G3lvAAAA4J1k8SJWw+qWntXdJmahDPcdisHJGSi1/ZCmzbYZiL2d9TOKbr6B44O12Tx1m3yfrtSCSnVZ2+xLCasG9tYCWqU2O+wqS/jeiYb7tjc4g6guZBZnuA2/FpXarLjuat1a4PdBdxwYKi5nXfgW6Uv1fjY+hgAAALD85IpYpysxMsunz003EMcnlup1b725G1jPdT3FJWMDx6thrXtbbIkTcWx4YsZQV2zt3hjl9unLy+YysLczOnc2sIRvIU5XYqSw4XnUPtFvUqOvc6EaOfc1mJg9tW3GDLeJWXEH5tmDbB61mWP76va66rizXHhQ4xp9P6uzDKfMNj7txSlX1/veAAAAwDKTK2IN98WhwYiu/fWfvNYRvQemL8saOD4Y7Vv2xIHdXTNDRe2T4W7I5Je5rue5nmifFs9qm4rv3hIxubSxOmOovHt3bePxySeYrqM3DtQXjo3lmJkw5jbbcrhpasvvep6rG8PuA9P3/mr4dS5QI+euu7/+kyjnNXA8BqMcW7a0z1hmV93DquvaljEWY15HbzxX2IT+quO9oPezNqusZ8/UuM81Pl37676n53hvFjKGAAAAsMzkili12Sv7Brtif92eWFsqhT2vBg5Gf3RFV1zDhu4LNLC3M3b2l6dfz4mdhWVbtRjRXltKOHHvsRMR7TM/Ia+o3HO4bg+mcvTv3N54OKptdr9/aK49mIajb/vO6I+6jey3Hq9+yl6dxl7nQjV27oWrzsZrn23j9oHjMRgRMVKJBU9Sqm0637W/dq3PRTxWXE541fFe2Ps53PfY1PPNMz4j/fuisrtunzgbuAMAALDCNK1v3zC+/gN3xPnz54vHEuuI3qPVyFL/iW00rqP3aHXvp7qlc4tlKc+9/PheBwAAYGVraWmJn//i9XwzsRrSsS22tA/GIb/UX6PqZvNXmyF2cyzluQEAAIDlahlGrOp+QNF/cIGfPLdSdUTv0fq9riI6ep+LntmW4t1wS3luAAAA4J1kWUWsjt6jk/sBWVrVqOE4dqJ+r6uhONxTiX2dc+/TdOMs5bkBAACAd5JluicWAAAAACvB8t4TCwAAAIAVRcQCAAAAID0RCwAAAID0RCwAAAAA0hOxAAAAAEhPxAIAAAAgPRELAAAAgPRELAAAAADSE7EAAAAASE/EAgAAACA9EQsAAACA9EQsAAAAANITsQAAAABIT8QCAAAAID0RCwAAAID0RCwAAAAA0hOxAAAAAEhPxAIAAAAgPRELAAAAgPRELAAAAADSE7EAAAAASE/EAgAAACA9EQsAAACA9EQsAAAAANITsQAAAABIT8QCAAAAID0RCwAAAID0RCwAAAAA0hOxAAAAAEhPxAIAAAAgPRELAAAAgPRELAAAAADSE7EAAAAASE/EAgAAACA9EQsAAACA9EQsAAAAANITsQAAAABIT8QCAAAAID0RCwAAAID0RCwAAAAA0hOxAAAAAEhPxAIAAAAgPRELAAAAgPRELAAAAADSE7EAAAAASE/EAgAAACA9EQsAAACA9EQsAAAAANITsQAAAABIT8QCAAAAID0RCwAAAID0RCwAAAAA0hOxAAAAAEhPxAIAAAAgPRELAAAAgPRELAAAAADSE7EAAAAASE/EAgAAACA9EQsAAACA9EQsAAAAANITsQAAAABIT8QCAAAAID0RCwAAAID0RCwAAAAA0hOxAAAAAEhPxAIAAAAgPRELAAAAgPRELAAAAADSE7EAAAAASE/EAgAAACA9EQsAAACA9EQsAAAAANITsQAAAABIT8QCAAAAID0RCwAAAID0RCwAAAAA0hOxAAAAAEhPxAIAAAAgPRELAAAAgPRELAAAAADSE7EAAAAASE/EAgAAACA9EQsAAACA9EQsAAAAANITsQAAAABIT8QCAAAAID0RCwAAAID0RCwAAAAA0hOxAAAAAEhPxAIAAAAgPRELAAAAgPRELAAAAADSE7EAAAAASE/EAgAAACA9EQsAAACA9EQsAAAAANITsQAAAABIT8QCAAAAID0RCwAAAID0RCwAAAAA0hOxAAAAAEhPxAIAAAAgPRELAAAAgPRELAAAAADSE7EAAAAASE/EAgAAACA9EQsAAACA9EQsAAAAANITsQAAAABIT8QCAAAAID0RCwAAAID0RCwAAAAA0hOxAAAAAEhPxAIAAAAgPRELAAAAgPRELAAAAADSE7EAAAAASE/EAgAAACA9EQsAAACA9EQsAAAAANITsQAAAABIT8QCAAAAID0RCwAAAID0RCwAAAAA0hOxAAAAAEhPxAIAAAAgPRELAAAAgPRELAAAAADSE7EAAAAASE/EAgAAACA9EQsAAACA9EQsAAAAANITsQAAAABIT8QCAAAAID0RCwAAAID0RCwAAAAA0hOxAAAAAEhPxAIAAAAgPRELAAAAgPRELAAAAADSE7EAAAAASE/EAgAAACA9EQsAAACA9EQsAAAAANITsQAAAABIT8QCAAAAID0RCwAAAID0RCwAAAAA0hOxAAAAAEhPxAIAAAAgPRELAAAAgPRELAAAAADSE7EAAAAASE/EAgAAACA9EQsAAACA9EQsAAAAANITsQAAAABIT8QCAAAAID0RCwAAAID0RCwAAAAA0hOxAAAAAEhPxAIAAAAgPRELAAAAgPRELAAAAADSE7EAAAAASE/EAgAAACA9EQsAAACA9EQsAAAAANITsQAAAABIT8QCAAAAID0RCwAAAID0RCwAAAAA0hOxAAAAAEhPxAIAAAAgPRELAAAAgPRELAAAAADSE7EAAAAASE/EAgAAACA9EQsAAACA9EQsAAAAANITsQAAAABIT8QCAAAAID0RCwAAAID0RCwAAAAA0hOxAAAAAEhPxAIAAAAgPRELAAAAgPRELAAAAADSE7EAAAAASE/EAgAAACA9EQsAAACA9EQsAAAAANITsQAAAABIT8QCAAAAID0RCwAAAID0RCwAAAAA0hOxAAAAAEhPxAIAAAAgPRELAAAAgPRELAAAAADSE7EAAAAASE/EAgAAACA9EQsAAACA9EQsAAAAANITsQAAAABIT8QCAAAAID0RCwAAAID0RCwAAAAA0hOxAAAAAEhPxAIAAAAgPRELAAAAgPRELAAAAADSE7EAAAAASE/EAgAAACA9EQsAAACA9EQsAAAAANITsQAAAABIT8QCAAAAID0RCwAAAID0RCwAAAAA0hOxAAAAAEhPxAIAAAAgPRELAAAAgPRELAAAAADSE7EAAAAASE/EAgAAACA9EQsAAACA9EQsAAAAANITsQAAAABIT8QCAAAAID0RCwAAAID0RCwAAAAA0hOxAAAAAEhPxAIAAAAgPRELAAAAgPRELAAAAADSE7EAAAAASE/EAgAAACA9EQsAAACA9EQsAAAAANITsQAAAABIT8QCAAAAID0RCwAAAID0RCwAAAAA0hOxAAAAAEhPxAIAAAAgPRELAAAAgPRELAAAAADSE7EAAAAASE/EAgAAACA9EQsAAACA9EQsAAAAANITsQAAAABIT8QCAAAAID0RCwAAAID0RCwAAAAA0hOxAAAAAEhPxAIAAAAgPRELAAAAgPRELAAAAADSE7EAAAAASE/EAgAAACA9EQsAAACA9EQsAAAAANITsQAAAABIT8QCAAAAID0RCwAAAID0RCwAAAAA0hOxAAAAAEhPxAIAAAAgPRELAAAAgPRELAAAAADSE7EAAAAASE/EAgAAACA9EQsAAACA9EQsAAAAANITsQAAAABIT8QCAAAAID0RCwAAAID0RCwAAAAA0hOxAAAAAEhPxAIAAAAgPRELAAAAgPRELAAAAADSE7EAAAAASE/EAgAAACA9EQsAAACA9EQsAAAAANITsQAAAABIT8QCAAAAID0RCwAAAID0RCwAAAAA0hOxAAAAAEhPxAIAAAAgPRELAAAAgPRELAAAAADSE7EAAAAASE/EAgAAACA9EQsAAACA9EQsAAAAANITsQAAAABIT8QCAAAAID0RCwAAAID0RCwAAAAA0hOxAAAAAEhPxAIAAAAgPRELAAAAgPRELAAAAADSE7EAAAAASE/EAgAAACA9EQsAAACA9EQsAAAAANITsQAAAABIT8QCAAAAID0RCwAAAID0RCwAAAAA0hOxAAAAAEhPxAIAAAAgPRELAAAAgPRELAAAAADSE7EAAAAASE/EAgAAACA9EQsAAACA9EQsAAAAANITsQAAAABIT8QCAAAAID0RCwAAAID0RCwAAAAA0hOxAAAAAEhPxAIAAAAgPRELAAAAgPRELAAAAADSE7EAAAAASE/EAgAAACA9EQsAAACA9EQsAAAAANITsQAAAABIT8QCAAAAID0RCwAAAID0RCwAAAAA0hOxAAAAAEhPxAIAAAAgPRELAAAAgPRELAAAAADSE7EAAAAASE/EAgAAACA9EQsAAACA9EQsAAAAANITsQAAAABIT8QCAAAAID0RCwAAAID0RCwAAAAA0hOxAAAAAEhPxAIAAAAgPRELAAAAgPRELAAAAADSE7EAAAAASE/EAgAAACA9EQsAAACA9EQsAAAAANITsQAAAABIT8QCAAAAID0RCwAAAID0RCwAAAAA0hOxAAAAAEhPxAIAAAAgPRELAAAAgPRELAAAAADSE7EAAAAASE/EAgAAACA9EQsAAACA9EQsAAAAANITsQAAAABIT8QCAAAAID0RCwAAAID0RCwAAAAA0hOxAAAAAEhPxAIAAAAgPRELAAAAgPRELAAAAADSE7EAAAAASE/EAgAAACA9EQsAAACA9EQsAAAAANITsQAAAABIT8QCAAAAID0RCwAAAID0RCwAAAAA0hOxAAAAAEhPxAIAAAAgPRELAAAAgPRELAAAAADSE7EAAAAASE/EAgAAACA9EQsAAACA9EQsAAAAANITsQAAAABIT8QCAAAAID0RCwAAAID0RCwAAAAA0hOxAAAAAEhPxAIAAAAgPRELAAAAgPRELAAAAADSE7EAAAAASE/EAgAAACA9EQsAAACA9EQsAAAAANITsQAAAABIT8QCAAAAID0RCwAAAID0RCwAAAAA0hOxAAAAAEhPxAIAAAAgPRELAAAAgPRELAAAAADSE7EAAAAASE/EAgAAACA9EQsAAACA9EQsAAAAANITsQAAAABIT8QCAAAAID0RCwAAAID0RCwAAAAA0hOxAAAAAEhPxAIAAAAgPRELAAAAgPRELAAAAADSE7EAAAAASE/EAgAAACA9EQsAAACA9EQsAAAAANITsQAAAABIT8QCAAAAID0RCwAAAID0RCwAAAAA0hOxAAAAAEhPxAIAAAAgPRELAAAAgPRELAAAAADSE7EAAAAASE/EAgAAACA9EQsAAACA9EQsAAAAANITsQAAAABIT8QCAAAAID0RCwAAAID0RCwAAAAA0hOxAAAAAEhvVUTE+Ph48X4AAAAAWHIT3WpVRMTY2FiUSqXiYwAAAABgyZRKpRgbG4uYiFgXLrwda9asKT4OAAAAAJbMrbfeGm+9dSFiImL98pe/jkuXLsW6devMyAIAAABgSZVKpbjtttvi4sWL8atfvRUREU3r2zeMR0SsamqKd73rN2LdurVRKpWiqamp+PUAAAAAcFONj4/H2NhYvPXWhfjVr96KK7U9sSYjFgAAAABk9f8Bh00+gsA5kcwAAAAASUVORK5CYII=;" vertex="1" parent="1">
          <mxGeometry x="200" y="500" width="1200" height="570" as="geometry" />
        </mxCell>
      </root>
    </mxGraphModel>
  </diagram>
</mxfile>
